<svg viewBox="0 0 100 100" xmlns="http://www.w3.org/2000/svg">
  <!-- Left sneaker -->
  <g>
    <path d="M 4 62 Q 4 38 24 38 L 36 38 Q 44 48 44 62 Q 44 76 36 78 L 10 78 Q 4 76 4 62 Z" fill="#fef3e2" stroke="#3d2817" stroke-width="3" stroke-linejoin="round"/>
    <path d="M 4 62 L 44 62" stroke="#3d2817" stroke-width="2"/>
    <line x1="16" y1="48" x2="32" y2="55" stroke="#3d2817" stroke-width="1.5"/>
    <line x1="16" y1="56" x2="32" y2="48" stroke="#3d2817" stroke-width="1.5"/>
    <line x1="16" y1="64" x2="32" y2="62" stroke="#3d2817" stroke-width="1.5" opacity="0.4"/>
    <path d="M 18 76 Q 24 60 36 56" stroke="#7ed4b3" stroke-width="4" fill="none" stroke-linecap="round"/>
  </g>
  <!-- Right sneaker -->
  <g>
    <path d="M 56 62 Q 56 38 76 38 L 88 38 Q 96 48 96 62 Q 96 76 88 78 L 62 78 Q 56 76 56 62 Z" fill="#fef3e2" stroke="#3d2817" stroke-width="3" stroke-linejoin="round"/>
    <path d="M 56 62 L 96 62" stroke="#3d2817" stroke-width="2"/>
    <line x1="68" y1="48" x2="84" y2="55" stroke="#3d2817" stroke-width="1.5"/>
    <line x1="68" y1="56" x2="84" y2="48" stroke="#3d2817" stroke-width="1.5"/>
    <line x1="68" y1="64" x2="84" y2="62" stroke="#3d2817" stroke-width="1.5" opacity="0.4"/>
    <path d="M 70 76 Q 76 60 88 56" stroke="#7ed4b3" stroke-width="4" fill="none" stroke-linecap="round"/>
  </g>
</svg>
